<svg width="93" height="24" viewBox="0 0 93 24" fill="none" xmlns="http://www.w3.org/2000/svg">
<path fill-rule="evenodd" clip-rule="evenodd" d="M29.621 7C28.9636 7 28.3657 7.30464 28.0867 7.64897V11.9069L25.4152 15.5378V7.2838H22.8635L18.6381 14.4016V7.2838H17.1829L13.3554 8.23641V9.2307L15.4496 9.45397V18.1932H18.1602L22.2061 11.4207V18.1932H25.1762L29.2826 12.8C30.9173 10.7112 31.4948 9.85982 31.4948 8.84469C31.4948 7.83155 30.6979 7 29.621 7ZM38.631 16.2874C36.7378 16.2874 35.502 14.6649 35.502 12.2527C35.502 9.83938 36.4383 8.48091 38.2526 8.17628L38.233 11.0966C38.8505 11.4618 39.3489 11.6235 39.9468 11.6235C41.1231 11.6235 41.9005 10.8734 41.9005 9.79869C41.9005 8.13559 40.2258 7.0004 37.7736 7.0004C34.0867 7.0004 31.575 9.33231 31.575 12.7994C31.575 14.3613 32.093 15.7605 33.1288 16.8143C34.1462 17.8493 35.382 18.3355 37.1562 18.3355C38.791 18.3355 39.9663 18.0517 42 17.0981V15.1512C40.3253 15.9827 39.5079 16.2874 38.631 16.2874ZM5.3032 16.814C5.58216 16.8348 5.72066 16.8348 5.90111 16.8348C8.07428 16.8348 9.24962 15.4555 9.24962 12.8001C9.24962 10.5694 8.29277 9.3717 6.53804 9.3717C6.25631 9.3717 5.97458 9.40884 5.42378 9.48144C5.39106 9.48575 5.35738 9.49019 5.3227 9.49475L5.3032 16.814ZM5.3032 8.48062C7.27641 7.2839 7.95333 7.08147 8.95018 7.08147C11.2833 7.08147 12.9971 9.27148 12.9971 12.293C12.9971 15.8008 10.7049 18.1536 7.07645 18.1536C6.67849 18.1536 5.98012 18.1337 5.28271 18.0524L5.3032 21.58L7.05695 21.9859V23H0.180447V21.9859L1.75473 21.58V9.3717H0V8.31788L4.20686 7.01995H5.3032V8.48062Z" fill="white"/>
<path d="M47.248 6.576H48.768V16.72H54.816V18H47.248V6.576ZM56.9546 8.24H55.5946V6.576H56.9546V8.24ZM55.5946 9.728H56.9546V18H55.5946V9.728ZM58.7095 6.576H60.0695V10.848H60.1015C60.3255 10.3893 60.6775 10.0587 61.1575 9.856C61.6375 9.64267 62.1655 9.536 62.7415 9.536C63.3815 9.536 63.9362 9.65333 64.4055 9.888C64.8855 10.1227 65.2802 10.4427 65.5895 10.848C65.9095 11.2427 66.1495 11.7013 66.3095 12.224C66.4695 12.7467 66.5495 13.3013 66.5495 13.888C66.5495 14.4747 66.4695 15.0293 66.3095 15.552C66.1602 16.0747 65.9255 16.5333 65.6055 16.928C65.2962 17.312 64.9015 17.616 64.4215 17.84C63.9522 18.064 63.4028 18.176 62.7735 18.176C62.5708 18.176 62.3415 18.1547 62.0855 18.112C61.8402 18.0693 61.5948 18 61.3495 17.904C61.1042 17.808 60.8695 17.68 60.6455 17.52C60.4322 17.3493 60.2508 17.1413 60.1015 16.896H60.0695V18H58.7095V6.576ZM65.1095 13.792C65.1095 13.408 65.0562 13.0347 64.9495 12.672C64.8535 12.2987 64.6988 11.968 64.4855 11.68C64.2828 11.392 64.0162 11.1627 63.6855 10.992C63.3655 10.8213 62.9868 10.736 62.5495 10.736C62.0908 10.736 61.7015 10.8267 61.3815 11.008C61.0615 11.1893 60.8002 11.4293 60.5975 11.728C60.3948 12.016 60.2455 12.3467 60.1495 12.72C60.0642 13.0933 60.0215 13.472 60.0215 13.856C60.0215 14.2613 60.0695 14.656 60.1655 15.04C60.2615 15.4133 60.4108 15.744 60.6135 16.032C60.8268 16.32 61.0988 16.5547 61.4295 16.736C61.7602 16.9067 62.1602 16.992 62.6295 16.992C63.0988 16.992 63.4882 16.9013 63.7975 16.72C64.1175 16.5387 64.3735 16.2987 64.5655 16C64.7575 15.7013 64.8962 15.36 64.9815 14.976C65.0668 14.592 65.1095 14.1973 65.1095 13.792ZM67.6979 9.728H68.9779V11.472H69.0099C69.3405 10.8 69.7459 10.304 70.2259 9.984C70.7059 9.664 71.3139 9.51467 72.0499 9.536V10.976C71.5059 10.976 71.0419 11.0507 70.6579 11.2C70.2739 11.3493 69.9645 11.568 69.7299 11.856C69.4952 12.144 69.3245 12.496 69.2179 12.912C69.1112 13.3173 69.0579 13.7867 69.0579 14.32V18H67.6979V9.728ZM80.002 17.968C79.7673 18.1067 79.442 18.176 79.026 18.176C78.674 18.176 78.3913 18.08 78.178 17.888C77.9753 17.6853 77.874 17.36 77.874 16.912C77.5007 17.36 77.0633 17.6853 76.562 17.888C76.0713 18.08 75.538 18.176 74.962 18.176C74.5887 18.176 74.2313 18.1333 73.89 18.048C73.5593 17.9627 73.2713 17.8293 73.026 17.648C72.7807 17.4667 72.5833 17.232 72.434 16.944C72.2953 16.6453 72.226 16.288 72.226 15.872C72.226 15.4027 72.306 15.0187 72.466 14.72C72.626 14.4213 72.834 14.1813 73.09 14C73.3567 13.808 73.6553 13.664 73.986 13.568C74.3273 13.472 74.674 13.392 75.026 13.328C75.3993 13.2533 75.7513 13.2 76.082 13.168C76.4233 13.1253 76.722 13.072 76.978 13.008C77.234 12.9333 77.4367 12.832 77.586 12.704C77.7353 12.5653 77.81 12.368 77.81 12.112C77.81 11.8133 77.7513 11.5733 77.634 11.392C77.5273 11.2107 77.3833 11.072 77.202 10.976C77.0313 10.88 76.834 10.816 76.61 10.784C76.3967 10.752 76.1833 10.736 75.97 10.736C75.394 10.736 74.914 10.848 74.53 11.072C74.146 11.2853 73.938 11.696 73.906 12.304H72.546C72.5673 11.792 72.674 11.36 72.866 11.008C73.058 10.656 73.314 10.3733 73.634 10.16C73.954 9.936 74.3167 9.776 74.722 9.68C75.138 9.584 75.5807 9.536 76.05 9.536C76.4233 9.536 76.7913 9.56267 77.154 9.616C77.5273 9.66933 77.8633 9.78133 78.162 9.952C78.4607 10.112 78.7007 10.3413 78.882 10.64C79.0633 10.9387 79.154 11.328 79.154 11.808V16.064C79.154 16.384 79.17 16.6187 79.202 16.768C79.2447 16.9173 79.3727 16.992 79.586 16.992C79.7033 16.992 79.842 16.9653 80.002 16.912V17.968ZM77.794 13.728C77.6233 13.856 77.3993 13.952 77.122 14.016C76.8447 14.0693 76.5513 14.1173 76.242 14.16C75.9433 14.192 75.6393 14.2347 75.33 14.288C75.0207 14.3307 74.7433 14.4053 74.498 14.512C74.2527 14.6187 74.05 14.7733 73.89 14.976C73.7407 15.168 73.666 15.4347 73.666 15.776C73.666 16 73.7087 16.192 73.794 16.352C73.89 16.5013 74.0073 16.624 74.146 16.72C74.2953 16.816 74.466 16.8853 74.658 16.928C74.85 16.9707 75.0527 16.992 75.266 16.992C75.714 16.992 76.098 16.9333 76.418 16.816C76.738 16.688 76.9993 16.5333 77.202 16.352C77.4047 16.16 77.554 15.9573 77.65 15.744C77.746 15.52 77.794 15.312 77.794 15.12V13.728ZM80.8198 9.728H82.0998V11.472H82.1318C82.4624 10.8 82.8678 10.304 83.3478 9.984C83.8278 9.664 84.4358 9.51467 85.1718 9.536V10.976C84.6278 10.976 84.1638 11.0507 83.7798 11.2C83.3958 11.3493 83.0864 11.568 82.8518 11.856C82.6171 12.144 82.4464 12.496 82.3398 12.912C82.2331 13.3173 82.1798 13.7867 82.1798 14.32V18H80.8198V9.728ZM89.0439 19.104C88.8839 19.5093 88.7239 19.8507 88.5639 20.128C88.4145 20.4053 88.2439 20.6293 88.0519 20.8C87.8705 20.9813 87.6625 21.1093 87.4279 21.184C87.2039 21.2693 86.9425 21.312 86.6439 21.312C86.4839 21.312 86.3239 21.3013 86.1639 21.28C86.0039 21.2587 85.8492 21.2213 85.6999 21.168V19.92C85.8172 19.9733 85.9505 20.016 86.0999 20.048C86.2599 20.0907 86.3932 20.112 86.4999 20.112C86.7772 20.112 87.0065 20.0427 87.1879 19.904C87.3799 19.776 87.5239 19.5893 87.6199 19.344L88.1799 17.952L84.8999 9.728H86.4359L88.8519 16.496H88.8839L91.2039 9.728H92.6439L89.0439 19.104Z" fill="white"/>
</svg>
